<svg width="734" height="196" viewBox="0 0 734 196" fill="none" xmlns="http://www.w3.org/2000/svg">
<path d="M21.2796 184.682C16.1766 193.916 25.4106 194.402 28.3266 189.785C33.9156 180.551 39.0186 168.158 44.8506 158.924C61.3746 132.923 77.4126 106.436 94.4226 80.4351C104.872 64.1541 115.807 48.8451 126.499 32.8071C127.714 31.1061 128.929 29.8911 131.602 29.8911C159.061 29.8911 186.763 29.8911 213.979 29.8911C226.615 29.8911 240.466 30.8631 252.616 30.6201C265.495 29.8911 265.009 21.8721 252.373 21.8721C235.363 21.8721 217.867 24.0591 201.1 24.3021C179.473 24.3021 157.603 24.5451 135.976 24.5451C135.247 24.5451 134.275 24.5451 133.06 24.0591C134.032 22.6011 134.518 21.6291 135.004 20.4141C135.733 19.4421 135.733 17.7411 134.761 17.2551C133.789 16.7691 132.088 17.0121 131.116 17.7411C129.901 18.7131 128.443 20.4141 127.471 22.3581C126.013 24.0591 124.555 24.7881 121.882 24.5451C114.106 24.5451 106.573 24.3021 98.7966 24.0591C84.7026 24.0591 70.6086 23.8161 56.2716 23.3301C40.4766 23.0871 23.9526 22.6011 7.9146 22.3581C-0.590405 22.3581 -3.2634 30.3771 7.1856 29.8911C21.5226 30.1341 35.1306 28.4331 49.4676 28.6761C72.5526 29.4051 95.3946 29.6481 118.723 29.8911C119.209 29.8911 119.695 30.1341 120.424 30.3771C119.452 32.0781 118.48 33.2931 117.508 34.7511C101.713 55.6491 87.1326 78.0051 73.2816 100.361C58.4586 124.175 43.8786 147.989 29.2986 172.046C26.3826 176.663 23.2236 179.822 21.2796 184.682Z" fill="#262626"/>
<path d="M161.401 109.595C176.224 110.324 178.897 101.333 169.663 102.062C167.962 102.062 166.018 102.305 164.56 102.305C160.672 102.548 159.457 101.819 158.728 98.1741C158.242 95.9871 157.999 93.5571 157.27 91.1271C155.812 86.5101 152.653 84.5661 147.793 85.7811C145.606 86.0241 143.176 86.9961 141.232 88.6971C138.316 90.6411 135.643 93.3141 132.484 95.7441C131.998 96.2301 131.026 96.9591 130.054 97.6881C131.755 93.0711 133.699 88.9401 135.886 84.8091C136.372 83.5941 136.858 82.1361 136.858 80.6781C137.101 79.7061 136.372 78.4911 135.643 78.0051C134.914 77.5191 133.456 78.0051 132.97 78.4911C131.755 79.7061 130.54 81.4071 129.811 82.8651C123.736 93.8001 117.904 104.978 111.829 115.913C111.343 117.128 110.371 118.1 110.371 119.558C110.371 125.147 117.175 122.96 119.362 118.1C122.278 112.511 126.895 106.922 132.484 102.305C136.129 98.9031 147.064 87.2391 151.195 96.4731C152.653 102.062 153.625 109.109 161.401 109.595Z" fill="#262626"/>
<path d="M226.244 104.735C231.59 98.1741 221.87 102.548 218.711 103.52C211.907 105.707 201.215 110.324 204.374 98.1741C205.103 96.2301 205.832 94.0431 206.561 91.8561C207.533 89.9121 207.29 87.9681 205.346 87.2391C204.131 86.5101 201.944 86.5101 200.972 87.2391C199.271 87.7251 198.299 89.4261 197.084 90.1551C191.495 94.7721 185.906 99.1461 180.317 103.52C179.345 104.006 178.373 104.006 176.429 104.978C177.644 103.034 178.373 101.819 178.859 100.847C180.803 98.4171 182.747 95.9871 184.205 93.5571C185.42 91.8561 185.663 90.1551 184.205 88.6971C182.747 87.7251 181.046 88.4541 179.588 89.6691C175.943 94.0431 172.055 98.4171 169.868 104.006C169.382 105.221 169.139 106.922 169.139 108.137C169.139 111.296 170.84 112.997 173.999 112.997C175.7 112.997 177.401 112.511 178.859 111.782C182.747 110.081 185.906 107.408 189.308 105.221C191.738 103.763 193.682 102.062 196.112 100.361C196.355 101.576 196.598 101.819 196.598 102.548C195.869 116.642 216.524 112.997 226.244 104.735Z" fill="#262626"/>
<path d="M277.694 107.165C284.498 103.034 283.283 99.3891 275.264 101.333C272.105 102.062 269.189 103.52 266.03 104.735C258.497 108.137 250.478 110.567 241.73 111.296C239.3 111.782 236.627 111.782 234.197 111.053C230.795 110.324 230.066 108.38 231.038 105.221C231.524 104.006 232.01 103.034 232.739 102.062C237.356 96.2301 243.431 91.3701 251.207 89.1831C256.067 87.9681 257.039 88.9401 257.768 94.0431C258.254 94.5291 258.74 96.2301 259.226 96.2301C260.441 96.2301 261.413 95.5011 262.142 95.0151C265.544 91.1271 263.843 85.0521 258.983 83.3511C256.067 82.3791 252.665 82.1361 249.749 83.1081C239.786 85.2951 232.496 90.8841 226.421 98.9031C225.935 99.8751 225.449 101.09 224.963 102.062C221.561 109.838 224.963 115.913 232.496 117.857C235.412 118.586 238.571 118.829 241.244 118.1C252.908 117.371 263.6 113.483 274.292 108.866C275.507 108.38 276.722 107.894 277.694 107.165Z" fill="#262626"/>
<path d="M312.111 114.698C313.083 112.511 313.569 111.782 314.055 111.053C317.7 103.52 321.831 96.4731 325.233 89.4261C327.42 85.2951 327.177 82.6221 324.99 81.4071C321.831 79.7061 319.644 81.4071 317.7 83.3511C312.354 87.7251 307.494 92.0991 302.148 96.2301C298.017 99.1461 293.643 101.576 289.269 104.249C287.811 104.978 286.11 104.735 283.437 105.221C284.652 102.548 284.895 100.847 285.624 99.1461C288.54 94.0431 291.456 89.1831 294.129 83.8371C295.344 82.6221 295.587 80.9211 296.316 79.7061C293.643 77.0331 291.699 78.4911 290.241 80.4351C287.325 84.5661 284.652 88.9401 281.979 93.3141C280.521 96.2301 279.063 99.1461 278.091 102.305C276.39 108.866 280.521 112.511 287.082 111.539C288.297 111.539 289.269 111.053 290.241 110.324C297.288 107.894 303.12 103.277 308.952 99.1461C310.167 98.1741 311.382 96.7161 314.055 96.7161C308.709 105.707 303.363 114.698 298.017 123.203C296.559 125.39 294.615 127.577 292.914 129.521C281.736 139.97 270.558 149.933 259.623 160.382C252.333 167.429 245.529 175.205 241.155 184.439C240.183 186.14 239.454 188.327 239.454 190.271C238.968 194.402 241.884 196.589 245.529 195.86C248.202 195.131 250.146 193.916 252.09 192.458C255.249 190.271 257.922 188.084 260.595 185.654C273.474 172.532 284.166 157.952 294.129 142.643C297.774 137.783 300.447 132.437 305.55 129.035C314.055 123.689 322.56 118.1 330.822 112.754C334.224 110.567 338.112 109.109 341.271 107.165C343.215 105.95 344.187 104.735 343.215 103.034C342.729 102.305 341.028 101.09 339.813 101.09C338.112 101.09 336.411 101.576 334.71 102.548C328.635 105.707 322.803 109.109 316.728 112.268C315.513 113.24 314.298 113.726 312.111 114.698ZM277.362 153.578C272.016 163.298 256.464 180.794 249.66 184.682C252.333 178.364 266.184 162.569 277.362 153.578Z" fill="#262626"/>
<path d="M355.642 184.682C350.539 193.916 359.773 194.402 362.689 189.785C368.278 180.551 373.381 168.158 379.213 158.924C395.737 132.923 411.775 106.436 428.785 80.4351C439.234 64.1541 450.169 48.8451 460.861 32.8071C462.076 31.1061 463.291 29.8911 465.964 29.8911C493.423 29.8911 521.125 29.8911 548.341 29.8911C560.977 29.8911 574.828 30.8631 586.978 30.6201C599.857 29.8911 599.371 21.8721 586.735 21.8721C569.725 21.8721 552.229 24.0591 535.462 24.3021C513.835 24.3021 491.965 24.5451 470.338 24.5451C469.609 24.5451 468.637 24.5451 467.422 24.0591C468.394 22.6011 468.88 21.6291 469.366 20.4141C470.095 19.4421 470.095 17.7411 469.123 17.2551C468.151 16.7691 466.45 17.0121 465.478 17.7411C464.263 18.7131 462.805 20.4141 461.833 22.3581C460.375 24.0591 458.917 24.7881 456.244 24.5451C448.468 24.5451 440.935 24.3021 433.159 24.0591C419.065 24.0591 404.971 23.8161 390.634 23.3301C374.839 23.0871 358.315 22.6011 342.277 22.3581C333.772 22.3581 331.099 30.3771 341.548 29.8911C355.885 30.1341 369.493 28.4331 383.83 28.6761C406.915 29.4051 429.757 29.6481 453.085 29.8911C453.571 29.8911 454.057 30.1341 454.786 30.3771C453.814 32.0781 452.842 33.2931 451.87 34.7511C436.075 55.6491 421.495 78.0051 407.644 100.361C392.821 124.175 378.241 147.989 363.661 172.046C360.745 176.663 357.586 179.822 355.642 184.682Z" fill="#262626"/>
<path d="M492.119 92.0991C491.633 95.5011 491.39 97.9311 491.147 100.118C490.418 104.006 489.689 107.651 489.689 111.296C489.689 115.67 492.362 118.1 496.736 117.857C498.437 117.857 499.895 117.614 500.867 117.128C507.428 113.726 513.989 110.81 520.307 107.165C526.868 104.006 526.625 96.9591 516.905 101.09C512.288 103.277 507.671 106.193 503.054 108.623C501.11 109.352 498.923 109.838 496.25 111.053C496.736 107.408 496.979 104.978 497.708 102.548C498.194 99.8751 498.923 97.4451 499.166 95.0151C499.895 86.9961 496.007 83.8371 488.717 86.2671C487.259 86.7531 485.315 87.2391 484.343 88.2111C479.726 91.3701 475.352 94.7721 471.221 98.4171C466.604 102.548 461.987 107.165 457.127 111.539C456.155 112.754 455.426 113.969 453.239 113.969C457.127 106.679 461.258 99.8751 465.389 93.0711C481.67 66.8271 505.484 30.3771 525.167 6.32006C528.812 3.40407 523.466 -2.67094 519.578 1.70307C508.157 13.8531 490.904 41.0691 481.184 55.4061C466.847 76.3041 453.968 98.4171 442.061 120.53C440.846 122.717 439.874 124.661 439.631 127.091C438.902 128.306 439.631 130.493 440.603 131.222C441.332 132.194 443.276 132.194 444.977 131.708C446.435 131.465 447.65 130.007 448.865 129.035C454.94 122.96 461.258 117.128 467.576 111.053C473.651 105.221 479.726 98.9031 486.773 94.7721C488.231 93.8001 489.689 93.3141 492.119 92.0991Z" fill="#262626"/>
<path d="M587.475 104.978C589.662 104.006 588.447 102.062 586.746 101.576C585.288 101.333 583.83 102.548 582.615 103.034C577.998 105.221 573.381 108.137 569.493 109.109C554.67 113.483 567.306 90.1551 569.25 86.0241C570.222 84.3231 570.951 82.8651 571.194 81.1641C571.437 79.7061 570.951 78.4911 570.222 77.5191C569.25 77.0331 567.549 77.0331 566.577 77.2761C565.605 77.5191 564.633 78.7341 563.904 79.7061C561.717 81.8931 559.53 84.3231 557.343 86.5101C555.885 88.2111 553.941 88.6971 552.24 88.4541C540.576 87.4821 530.613 91.3701 522.108 98.6601C520.164 100.361 518.949 101.819 517.491 103.763C515.79 106.193 515.061 108.866 516.762 111.782C518.22 114.455 521.136 115.427 524.295 114.941C526.482 114.698 529.155 114.455 531.099 112.997C539.604 108.623 547.38 103.277 555.642 98.1741C555.156 101.333 554.67 104.006 554.67 106.679C554.67 123.446 580.185 111.782 587.475 104.978ZM523.566 107.894C529.155 99.6321 541.305 94.0431 551.025 93.3141C544.464 99.6321 533.043 106.193 523.566 107.894Z" fill="#262626"/>
<path d="M627.977 118.343C621.416 121.016 621.173 118.1 623.36 112.025C625.547 107.165 629.192 103.034 628.463 97.9311C627.491 87.2391 617.528 90.3981 610.724 93.8001C602.705 97.6881 594.443 103.277 587.396 109.109C579.377 115.913 590.555 104.249 592.256 101.819C594.686 98.6601 596.63 95.0151 598.817 91.6131C601.247 87.7251 601.733 85.5381 600.275 84.5661C598.817 83.1081 596.63 84.5661 594.2 87.7251C593.714 88.9401 593.228 89.6691 592.499 90.6411C589.583 95.0151 586.667 99.3891 583.508 103.52C581.078 107.408 578.648 111.296 575.975 115.184C574.76 116.642 574.274 118.586 575.975 120.287C577.919 122.231 579.863 121.016 581.321 120.287C582.536 119.801 583.265 118.829 583.994 118.1C589.097 114.455 593.714 110.81 598.574 107.408C603.677 104.249 609.266 101.09 614.612 98.1741C624.818 94.7721 622.145 100.118 619.229 107.165C618.5 110.081 617.042 112.268 616.313 115.427C615.584 119.558 616.799 122.231 619.715 123.689C622.874 124.904 626.276 124.661 629.678 123.203C639.884 119.072 650.333 114.698 660.296 110.081C669.773 105.707 667.343 99.3891 657.137 104.006C648.632 108.38 636.482 115.184 627.977 118.343Z" fill="#262626"/>
<path d="M699.523 92.0991C699.037 95.5011 698.794 97.9311 698.551 100.118C697.822 104.006 697.093 107.651 697.093 111.296C697.093 115.67 699.766 118.1 704.14 117.857C705.841 117.857 707.299 117.614 708.271 117.128C714.832 113.726 721.393 110.81 727.711 107.165C734.272 104.006 734.029 96.9591 724.309 101.09C719.692 103.277 715.075 106.193 710.458 108.623C708.514 109.352 706.327 109.838 703.654 111.053C704.14 107.408 704.383 104.978 705.112 102.548C705.598 99.8751 706.327 97.4451 706.57 95.0151C707.299 86.9961 703.411 83.8371 696.121 86.2671C694.663 86.7531 692.719 87.2391 691.747 88.2111C687.13 91.3701 682.756 94.7721 678.625 98.4171C674.008 102.548 669.391 107.165 664.531 111.539C663.559 112.754 662.83 113.969 660.643 113.969C664.531 106.679 668.662 99.8751 672.793 93.0711C689.074 66.8271 712.888 30.3771 732.571 6.32006C736.216 3.40407 730.87 -2.67094 726.982 1.70307C715.561 13.8531 698.308 41.0691 688.588 55.4061C674.251 76.3041 661.372 98.4171 649.465 120.53C648.25 122.717 647.278 124.661 647.035 127.091C646.306 128.306 647.035 130.493 648.007 131.222C648.736 132.194 650.68 132.194 652.381 131.708C653.839 131.465 655.054 130.007 656.269 129.035C662.344 122.96 668.662 117.128 674.98 111.053C681.055 105.221 687.13 98.9031 694.177 94.7721C695.635 93.8001 697.093 93.3141 699.523 92.0991Z" fill="#262626"/>
</svg>
